# xmcd CD database file
# Copyright (C) 1997 Ti Kan
#
# Track frame offsets:
#  150
#  22720
#  34992
#  65212
#  79787
#  97895
#  112482
#  126852
#  148347
#  161080
#  188520
#  201820
#  214995
#  227027
#  240852
#  258182
#  271732
#
# Disc length: 3766 seconds
#
# Revision: 1
# Processed by: cddbd v1.4b41PL1 Copyright (c) Steve Scherf et al.
# Submitted via: CDWizzard Release:4.32
#
DISCID=ef0eb411
DTITLE=Sonny Terry and Brownie Mc Ghee - Sonny Terry and Brownie Mc Ghee
DYEAR=1900
DGENRE=
TTITLE0=Drinkin in the blues
TTITLE1=Po boy
TTITLE2=Everybodys blues
TTITLE3=Trouble in mind
TTITLE4=I'm a stranger here
TTITLE5=Down by the river side
TTITLE6=Walk on
TTITLE7=Blues for the lowlands
TTITLE8=Right on that shore
TTITLE9=Blowin the fuses
TTITLE10=Daisy
TTITLE11=Draggin my heart around
TTITLE12=Harmonica hop
TTITLE13=Don't dog your woman
TTITLE14=Rock me mama
TTITLE15=Dirty mistreater
TTITLE16=Beautiful city
EXTD=
EXTT0=
EXTT1=
EXTT2=
EXTT3=
EXTT4=
EXTT5=
EXTT6=
EXTT7=
EXTT8=
EXTT9=
EXTT10=
EXTT11=
EXTT12=
EXTT13=
EXTT14=
EXTT15=
EXTT16=
PLAYORDER=
